<svg enable-background="new 0 0 263.6 400.4" height="389.249472" viewBox="0 0 263.6 400.4" width="256.904652" xmlns="http://www.w3.org/2000/svg"><path d="m92.2 139.6c-.2-2.1-1.3-3.6-2.4-5.3-.5.1-.8.4-1.1.7-2.1 1.7-4.2 3.5-6.3 5.2-4.6 3.7-9.2 7.5-13.8 11.2-.5.4-.7.7-.4 1.4.4 1 .6 2.1.8 3.1.2 1.4.6 2.8.3 4.2-.9 4.5-1.8 8.9-2.6 13.4-1 5.3-1.9 10.5-2.6 15.9-.8 6.5-1.7 13-2.7 19.5-.2 1.3-.3 2.6.1 3.9 1.8 5.2 3 10.5 3.7 15.9.1.8.1 1.7.5 2.4.2-.1.4-.1.5-.2 3.7-1.8 7.5-3.5 11.2-5.3.4-.2.8-.4 1.3-.2 2.8 1.1 5.6 2.1 8.5 3.2-4.2 7.4-8.2 14.6-12.3 21.8 5.4 4.4 10.7 8.8 16.2 13.3-.1-.9-.1-1.4-.2-2-.2-1.9-.5-3.8-.7-5.7-.5-5.2-1-10.5-1.5-15.7-.5-4.9-1.1-9.9-1.7-14.8-.8-6.8-1.5-13.5-2.3-20.3s-1.5-13.6-2.3-20.4c-.6-5.1-1.1-10.3-1.7-15.4-.3-3-.7-6-1-8.9-.2-2.1-.4-4.2-.7-6.3-.1-.7.1-.9.8-1.1 4.4-1 8.7-2 13.1-3 1-.2 1.1-.3.9-1.3-.6-3.2-1.3-6.2-1.6-9.2z" fill="none"/><path d="m209.5 392.8c.1 0 .2 0 .3-.1.1-.2-.1-.4-.1-.7.1.2.2.4.1.7-.1.1-.2.1-.3.1z" fill="none"/><path d="m260 152.9c-2.6-.6-5.1-1.3-7.7-1.8-1-.2-1.4-.6-1.7-1.5-2.2-7.5-4.7-14.9-7.6-22.2-3.5-8.7-7.5-17.1-11.5-25.5-1.4-2.9-2.8-5.9-4-8.9-.3-.7-.2-1.1.3-1.6 1.1-.9 2.1-1.9 3.2-2.8 1.7-1.5 3.5-3 5.2-4.5-.6-1-1.4-1.6-2-2.3-3.1-3.5-7-5.7-11.4-7.1-4.1-1.3-8.5-1.8-12.8-2-1.5-.1-3-.4-4.4-1.2-4.9-3-10.1-5.5-15.3-7.8-4.1-1.9-8.3-3.6-12.5-5.2-.7-.3-.8-.6-.8-1.2.1-1.9.5-3.6 1.2-5.3 1-2.4 1.8-4.8 2.3-7.4.6-3.3.9-6.7.9-10.1 0-1 0-1-1-1-.2 0-.4 0-.6 0-.6.1-.9-.1-1-.8-.3-1.8-.9-3.6-1.5-5.4-2-5.5-5-10.2-9.1-14.3-2.3-2.3-4.7-4.4-7.6-5.8-8.9-4.5-18.2-5.9-27.9-3.4-7.3 1.9-13.6 5.4-18.5 11.1-4.2 4.9-7.1 10.6-8.6 16.9-.1.5 0 1.1-.4 1.5-.4.5-1.1.2-1.6.2s-.8.2-.7.7c0 .9 0 1.9.1 2.8.1 1.9.3 3.7.4 5.6-.3.2-.6 0-.8 0-2.6-.6-5.3-.8-8-.7-3.3.1-6.3.9-9.2 2.5-4.1 2.4-7.1 5.9-9.3 10-2.6 4.8-3.8 9.9-4.3 15.2-.1 1.1-.2 2.1-1 2.9-3.1 3.1-5.6 6.7-8.3 10.2-5.6 7.4-11.2 14.9-16.7 22.4-.4.6-.8.8-1.6.7-3-.2-5.9-.2-8.9-.1-2 0-2.9.8-3.4 2.5-.1.3-.2.5-.3.8-1.2 2.9-2.1 5.8-2.5 8.9-.1 1.1-.1 1.2-1.2 1.2-2.3 0-4.1.9-5.7 2.4-.8.8-1.6 1.6-2.3 2.5-4.1 5-6.4 10.7-6.9 17.1-.1 1.7.1 3.4.8 5 1.2 2.7 2.4 5.4 3.8 8 .6 1.2.9 2.5.7 3.8-.3 2.6-.1 5.3.1 7.9.3 4.1.7 8.1 1.3 12.2.8 5.7 1.9 11.4 3 17.1 1 4.8 2.1 9.6 3.3 14.3.1.4.2.8 0 1.2-.8 1.3-1.5 2.6-2.3 4-1.2-1.2-2.3-2.3-3.5-3.4-.4-.4-.6-.9-.6-1.5 0-1.9-.1-3.9 0-5.8 0-.7-.2-1.1-1-1.2-5.1-1.1-10.2-2.3-15.3-3.4-.7-.2-.8-.1-.8.7.4 4.5.7 9 1.1 13.6.1.8.3 1.1 1.1 1.3 2.7.6 5.4 1.3 8.1 1.9.8.2 1.4.5 2 1l4.3 4.3c.5.5.6.8.3 1.4-1.5 3-2.8 6.2-4.1 9.3-.3.8-.5 1.6-.4 2.5.2 1 .4 2 .7 3 .9 3.4 2.3 6.7 3.4 10 .3.8.6 1.5 1.2 2 .7.6 1.4 1.3 2.3 1.6.5.2.9.5 1.1 1 .4 1.1 1.3 1.7 2.3 2.1.5.2.7.4.9.9.9 2.4 2.6 3.9 5.2 4.3.7.1 1.1.4 1.5.9 1.2 1.6 2.9 2.5 4.8 3 1.1.3 2.2.1 3.4.3v.7c-.6 4-1.1 7.9-1.7 11.9-.1.6 0 1 .4 1.4 1.9 2.2 3.7 4.4 5.6 6.5.8.9.9 1 1.7 0 1.7-1.9 3.4-3.8 5.1-5.7 2-2.2 4-4.4 5.9-6.6.4-.5.6-.4 1 0 .2.2.4.4.6.6 3.3 3.5 6.7 6.9 10 10.4 3 3.1 6 6.2 9 9.2 2.8 2.9 5.6 5.8 8.4 8.6 4.3 4.4 8.6 8.9 12.9 13.3 2.8 2.9 5.6 5.8 8.5 8.7 4.4 4.5 8.7 9 13.1 13.5 2.8 2.8 5.5 5.7 8.3 8.5 4.4 4.5 8.7 9 13.1 13.5 3.8 3.9 7.7 7.8 11.4 11.8 1.5 1.6 3 3.1 4.5 4.7 3.6 3.7 7.1 7.4 10.7 11.1.5.5 1 .8 1.7 1 2.4.5 4.9 1.1 7.3 1.7 10.8 2.5 21.6 5.1 32.4 7.7 1 .2 2 .2 2.9.8h.9c.1-.7-.2-1.3-.4-1.9-3-9.2-6-18.4-9-27.6-1.4-4.3-2.8-8.7-4.2-13-.2-.7-.6-1.2-1.2-1.7-6.7-5.5-13.4-11-20.1-16.5-.1-.1-.2-.2-.4-.4 1.2-.7 2.4-1.4 3.6-2 7.9-4.3 15.5-8.9 23-13.9 6.9-4.6 13.7-9.5 20-15 5.9-5.1 11.1-10.7 15.1-17.5 2.6-4.5 4.4-9.3 5.7-14.4 1.3-5.5 2.1-11.1 2.6-16.7s1.1-11.2 1.7-16.8c.7-6.2 1.4-12.4 2.1-18.6.5-4.6 1-9.2 1.5-13.9.7-6.4 1.5-12.9 2.2-19.3.5-4.6 1-9.1 1.5-13.7.6-5.6 1.3-11.1 1.9-16.6.1-.8.1-1.7.1-2.5.1 0 .2.1.2.1 0-.4 0-.8 0-1.1 0-.6 0-1.1 0-1.7-.6 0-.9-.1-1.3-.1zm-167-3c-4.3 1-8.7 2.1-13.1 3-.7.2-.9.4-.8 1.1.2 2.1.4 4.2.7 6.3.3 3 .7 6 1 8.9.6 5.1 1.1 10.3 1.7 15.4.8 6.8 1.5 13.6 2.3 20.4s1.5 13.5 2.3 20.3c.6 4.9 1.1 9.9 1.7 14.8.5 5.2 1 10.5 1.5 15.7.2 1.9.5 3.8.7 5.7.1.6.1 1.1.2 2-5.5-4.5-10.8-8.9-16.2-13.3 4-7.2 8-14.3 12.2-21.7-2.9-1.1-5.7-2.1-8.5-3.2-.5-.2-.9 0-1.3.2-3.7 1.8-7.5 3.5-11.2 5.3-.1.1-.3.1-.5.2-.4-.7-.4-1.6-.5-2.4-.8-5.4-1.9-10.7-3.7-15.9-.4-1.3-.3-2.6-.1-3.9 1.1-6.5 1.9-13 2.7-19.5.7-5.3 1.6-10.6 2.6-15.9.8-4.5 1.7-8.9 2.6-13.4.3-1.4-.1-2.8-.3-4.2-.2-1.1-.4-2.1-.8-3.1-.3-.7-.1-1 .4-1.4 4.6-3.7 9.2-7.4 13.8-11.2 2.1-1.7 4.2-3.4 6.3-5.2.3-.3.6-.6 1.1-.7 1.1 1.6 2.1 3.2 2.4 5.3.3 3 1 6 1.7 9 .2 1.1.1 1.2-.9 1.4z" style="fill:#fff;stroke:#fff;stroke-width:5;stroke-linecap:round;stroke-linejoin:round;stroke-miterlimit:10"/><g clip-rule="evenodd"><path d="m214.4 397.6c-.9-.6-2-.6-2.9-.8-10.8-2.6-21.6-5.1-32.4-7.7-2.4-.6-4.9-1.2-7.3-1.7-.7-.1-1.2-.5-1.7-1-3.6-3.7-7.1-7.4-10.7-11.1-1.5-1.6-3-3.1-4.5-4.7-3.8-4-7.6-7.8-11.4-11.8-4.4-4.5-8.7-9-13.1-13.5-2.8-2.8-5.5-5.7-8.3-8.5-4.4-4.5-8.7-9-13.1-13.5-2.8-2.9-5.6-5.8-8.5-8.7-4.3-4.4-8.6-8.9-12.9-13.3-2.8-2.9-5.6-5.8-8.4-8.6-3-3.1-6-6.2-9-9.2-3.3-3.5-6.7-6.9-10-10.4-.2-.2-.4-.4-.6-.6-.3-.4-.6-.5-1 0-1.9 2.2-3.9 4.4-5.9 6.6-1.7 1.9-3.4 3.8-5.1 5.7-.8.9-.9.9-1.7 0-1.9-2.2-3.7-4.4-5.6-6.5-.4-.4-.5-.8-.4-1.4.6-3.9 1.2-7.9 1.7-11.9 0-.2 0-.4 0-.7-1.1-.2-2.3 0-3.4-.3-1.9-.5-3.6-1.3-4.8-3-.4-.5-.8-.8-1.5-.9-2.6-.4-4.3-1.8-5.2-4.3-.2-.5-.4-.7-.9-.9-1-.4-1.9-1.1-2.3-2.1-.2-.5-.6-.8-1.1-1-.9-.4-1.6-1-2.3-1.6-.6-.6-1-1.2-1.2-2-1.1-3.4-2.4-6.6-3.4-10-.3-1-.5-2-.7-3-.2-.9.1-1.7.4-2.5 1.3-3.1 2.6-6.3 4.1-9.3.3-.6.2-1-.3-1.4-1.5-1.4-2.9-2.9-4.3-4.3-.5-.6-1.2-.9-2-1-2.7-.6-5.4-1.3-8.1-1.9-.8-.2-1.1-.5-1.1-1.3-.3-4.5-.7-9-1.1-13.6-.1-.8 0-.9.8-.7 5.1 1.1 10.2 2.3 15.3 3.4.7.2 1 .5 1 1.2 0 1.9.1 3.9 0 5.8 0 .6.2 1.1.6 1.5 1.2 1.1 2.3 2.2 3.5 3.4.8-1.4 1.5-2.8 2.3-4 .3-.4.1-.8 0-1.2-1.2-4.7-2.3-9.5-3.3-14.3-1.2-5.7-2.2-11.3-3-17.1-.6-4-1.1-8.1-1.3-12.2-.2-2.6-.3-5.3-.1-7.9.1-1.3-.1-2.6-.7-3.8-1.4-2.6-2.6-5.3-3.8-8-.7-1.6-.9-3.3-.8-5 .5-6.4 2.8-12.1 6.9-17.1.7-.9 1.5-1.7 2.3-2.5 1.6-1.5 3.4-2.4 5.7-2.4 1.1 0 1.1-.1 1.2-1.2.3-3.1 1.2-6.1 2.5-8.9.1-.3.3-.5.3-.8.5-1.7 1.3-2.5 3.4-2.5 3 0 5.9-.1 8.9.1.8.1 1.2-.2 1.6-.7 5.5-7.5 11-15 16.7-22.4 2.6-3.5 5.2-7.1 8.3-10.2.8-.9.9-1.9 1-2.9.5-5.3 1.8-10.5 4.3-15.2 2.2-4.1 5.2-7.6 9.3-10 2.8-1.6 5.9-2.4 9.2-2.5 2.7-.1 5.4.1 8 .7.3.1.5.2.8 0-.1-1.8-.3-3.7-.4-5.6-.1-.9 0-1.9-.1-2.8 0-.6.2-.7.7-.7s1.2.2 1.6-.2.3-1 .4-1.5c1.5-6.3 4.4-12 8.6-16.9 4.9-5.7 11.2-9.2 18.5-11.1 9.7-2.5 19-1.1 27.9 3.4 2.9 1.5 5.4 3.5 7.6 5.8 4.1 4.1 7.1 8.9 9.1 14.3.6 1.8 1.2 3.6 1.5 5.4.1.7.4.9 1 .8h.6c1 0 1 0 1 1-.1 3.4-.3 6.8-.9 10.1-.5 2.6-1.3 5-2.3 7.4-.7 1.7-1.1 3.5-1.2 5.3 0 .7.1 1 .8 1.2 4.2 1.6 8.4 3.3 12.5 5.2 5.2 2.4 10.4 4.9 15.3 7.8 1.4.9 2.8 1.1 4.4 1.2 4.3.3 8.6.7 12.8 2 4.4 1.4 8.3 3.6 11.4 7.1.7.7 1.4 1.4 2 2.3-1.7 1.5-3.5 3-5.2 4.5-1.1.9-2.1 1.9-3.2 2.8-.6.5-.6.9-.3 1.6 1.2 3 2.6 5.9 4 8.9 4 8.4 8.1 16.8 11.5 25.5 2.9 7.3 5.3 14.7 7.6 22.2.3.9.7 1.3 1.7 1.5 2.6.5 5.1 1.2 7.7 1.8.4.1.7.1 1.1.2v1.7c-.4.3-.3.7-.2 1 0 .8 0 1.7-.1 2.5-.6 5.6-1.3 11.1-1.9 16.6-.5 4.6-1 9.1-1.5 13.7-.7 6.4-1.5 12.9-2.2 19.3-.5 4.6-1 9.2-1.5 13.9-.7 6.2-1.5 12.4-2.1 18.6-.6 5.6-1.2 11.2-1.7 16.8s-1.3 11.2-2.6 16.7c-1.2 5.1-3 9.9-5.7 14.4-3.9 6.8-9.2 12.4-15.1 17.5-6.3 5.5-13.1 10.4-20 15-7.5 5-15.1 9.6-23 13.9-1.2.6-2.3 1.3-3.6 2l.4.4 20.1 16.5c.6.5.9 1 1.2 1.7 1.4 4.3 2.8 8.7 4.2 13 3 9.2 6 18.4 9 27.6.2.6.5 1.2.4 1.9-.2-.1-.5-.1-.7-.1zm-62.8-84.5c.2.1.3.2.3.4.4 0 .6.3.8.5 7.7 6.4 15.4 12.7 23.2 19.1.6.5 1.1.8 1.9.3 11.8-6.4 23.3-13.3 34.1-21.1 6.9-5 13.6-10.2 19.4-16.5 6.2-6.8 10.5-14.7 12.6-23.7 1.7-7.3 2.3-14.8 3.1-22.3.6-5.9 1.2-11.7 1.8-17.6.6-5.5 1.2-11 1.8-16.5.6-5.6 1.2-11.2 1.8-16.7.6-5.4 1.2-10.9 1.8-16.3.7-6.6 1.5-13.1 2.2-19.7.2-2.2.5-4.4.7-6.6.1-.5 0-.8-.6-.9-.3 0-.5-.1-.8-.2-7.3-1.7-14.6-3.4-21.9-5.1-20.2-4.7-40.4-9.4-60.6-14.2-3.2-.7-3.2-.7-6.5 0-15.6 3.7-31.2 7.3-46.8 11-11.9 2.8-23.9 5.6-35.8 8.4-1.2.3-1.2.3-1.1 1.5.4 3.7.8 7.4 1.2 11.1.6 5.5 1.2 11 1.8 16.5.7 6.3 1.4 12.7 2.1 19 .6 5.5 1.2 11 1.9 16.5.6 5.7 1.3 11.4 1.9 17.2.4 4 .8 8 1.2 12 .5 5.5 1.1 11.1 1.9 16.6.3 1.9 1.6 2.6 3 3.3-.1.3.1.2.2.3.4.4.8.9 1.3 1.3 1.3 1 2.5 2.1 3.8 3.1.7.5 1.2 1.3 2.1 1.6.2.2.4.4.6.6 3 2.5 6.1 5 9.1 7.5.1.1.1.2.2.3.1.2.3.2.5.2.1.1.1.2.2.3 0 0 .1-.1.1-.1 0-.2-.1-.3-.2-.3-.1-.1-.1-.2-.2-.2-.1-.1-.3-.2-.4-.3-.1-.4-.4-.7-.6-1.1-2.4-3.7-4.2-7.7-5.4-11.9-1.8-6.4-2.4-13-3.1-19.5-.5-4.5-.9-8.9-1.3-13.4-.5-4.7-1-9.4-1.5-14.1-.6-5.8-1.2-11.5-1.8-17.3-.5-4.7-1-9.5-1.5-14.2-.6-5.9-1.3-11.7-1.9-17.6-.2-2.1-.4-4.1-.7-6.2-.1-.7.1-1.1.9-1.2 1.8-.4 3.6-.9 5.4-1.3 21.7-5.2 43.3-10.5 65-15.7.9-.2 1.7-.2 2.6 0 23.1 5.6 46.2 11.2 69.2 16.8 2.1.5 2.1.5 1.8 2.8-.6 4.8-1.1 9.7-1.6 14.5-.6 5.7-1.2 11.4-1.8 17.2-.5 4.8-1 9.6-1.6 14.3-.6 5.8-1.2 11.5-1.8 17.3-.4 4-.9 8.1-1.3 12.1-.6 6.6-1.2 13.2-2.3 19.8-1.3 7.7-4.1 14.7-9 20.8-3.2 4.1-6.9 7.6-10.8 10.9-8.4 7-17.5 13.2-26.8 18.8-4.7 2.8-9.5 5.5-14.3 8.1-.8.4-1.4.5-2.2 0-.7-.5-1.5-.8-2.2-1.2-4.6-2.5-9.1-5.1-13.6-7.8-.4-.3-.8-.7-1.4-.4.3-.3 0-.4-.1-.6-.1 0-.1 0-.2-.1.1-.2.2-.1.2-.1zm-92.5-177.3c.1 0 .1.1.2.1-.1-.1-.2-.1-.2-.1.1-.3.1-.6-.2-.8-1.9-2.7-3.7-5.5-5.9-8-.3-.4-.6-.8-1.2-.9-1.5-1.9-3.4-3.3-5.9-3.6-1.7-.2-3.4-.4-5.1-.4-3.9 0-7.7.2-11.5.5-1.8.1-3.3.4-4.7 1.6-.5.4-.9 1-1.3 1.5-3.5 3.8-5.4 8.4-6.4 13.5-.2.9-.1 2.9.2 3.7.1-.1.2-.2.2-.4.1-.4.3-.7.4-1.1.8-3.3 2.4-6.3 4.3-9.2.3-.5.7-.7 1.1-1 .4-.1.9-.3 1.3-.4 6.8-2.3 13.8-3.4 21-2.2 4.9.9 9.3 2.9 13 6.4.1.4.3.6.7.8zm-4.6-19.8c0-1.2-1.1-1.8-1.6-2.7-1.1-1.8-2.8-2.7-4.8-3.1-1.1-.2-2.3-.3-3.5-.5-2.2-.3-4.5-.2-6.7-.2-.7 0-1 .2-.9.9 0 .9 0 1.9.1 2.8-.2.9.2 1.7.2 2.5 0 .6.4.7.9.6.8-.1 1.6-.3 2.4-.4 1.8-.2 3.5-.4 5.3-.3 2.6.1 4.5 1.3 6.1 3.3 3.3 4 6 8.4 8.8 12.8.9 1.5 1.8 2.9 2.9 4.7 0-1.5-.3-2.6-.6-3.7-1.4-5.1-3.8-9.7-6.4-14.3-.4-.8-.9-1.5-1.7-2-.2-.3-.3-.5-.5-.4zm16.8-38c-.6.2-.9.7-1.2 1.1-1.3 1.7-2.7 3.4-4 5.1-5.2 7-10.4 14-15.6 21-.2.2-.4.4-.2.7 3.3 1.1 3.3 1.1 5.9 3.4.1.1.2.1.2.1-.1.4-.1.7.1 1.1.3.5.6 1 .9 1.6 3.3 6.3 6.1 12.7 9 19.1.2.5.5 1.1.8 1.6.2-.1.3 0 .3-.1l.8-.8c2.8-3.5 4.9-7.4 6.7-11.4.5-1.1.8-2.3 1.2-3.5.3-1 .2-2-.1-3-2.3-6.8-3.4-13.9-4.2-21-.1-1.3-.1-2.6-.5-3.9-.2-3.7-.1-7.4-.1-11.1.1-.1.1-.1 0-.1 0-.1 0 0 0 .1zm26.6-20.7c2.2-3.8 5.2-7 8.9-9.7-1.1-.4-1.9-.8-2.7-1.1-3.9-1.2-7.8-1.7-11.8-1-2.2.4-4.2 1.1-6 2.4-4.8 3.5-7.7 8.3-9.3 13.9-.2.2-.3.5-.3.8-1.1 4.1-1.5 8.2-1.6 12.5-.1 5.9.5 11.7 1.4 17.5.9 5.6 2.2 11.1 4.1 16.4 2.4 6.5 5.9 12.4 9.5 18.3l.3.3c0-2.8-.2-3.6-1.4-5.8-.4-.7-.7-1.3-1.1-2-5.6-11.4-9-23.4-10.3-36.1-.5-5.2-.5-10.4.4-15.5.1-.8.2-1.7.6-2.4.5.3.5.8.7 1.2.6 1.3 1.2 1.6 2.5 1.5.9-.1 1.7-.4 2.5-.9 1.2-.8 2.3-1.7 3.2-2.8 1.3-1.5 2.9-2.5 4.8-3 .9-.2 1.8-.3 2.7-.4.3 0 .7 0 .8-.4.8-1.1 1.7-2.2 2.1-3.7zm22.9-25.8c.4.1.8 0 1.2-.2 3.3-1.1 6.4-2.4 9.4-4.2 3.4-2 6.5-4.5 8.9-7.8.2-.3.6-.6.6-1.1-.1-3.4-1-6.3-4.1-8.2-.3-.2-.9-.2-.9-.8.6-.1 1.1-.2 1.7-.3 2.2-.2 4.3-.3 6.5-.1 5 .4 9.7 1.6 13.9 4.2 5.6 3.4 9.9 8.1 12.2 14.4.6 1.8 1 3.6 1.1 5.5 0 .4 0 .8.5.8 1.2.1 2.3.5 3.5.3-2.6-15.7-16.9-29.8-35.6-28.5-18.3 1.3-29.2 16.6-30.7 28.6 1-.1 2.1 0 3-.6 3-.5 5.9-1.2 8.8-2zm-82.1 175.4c-.2 0-.5 0-.7.1-2.5.8-4.8 1.9-6.9 3.5-.7.6-1.4 1.3-1.8 2.2-.6 1.2-1.3 2.4-1.9 3.6-3 5.5-5.6 11.2-8 16.9-.4 1-.3 1.3.6 1.8 1.6.8 3.1 1.7 4.8 2.3.1.2.2.4.5.5 4.4 1.8 8.8 3.2 13.6 3.7.9.1 1.4-.2 1.8-.9 1.8-3.1 3.4-6.3 5.1-9.5 3-5.7 6.4-11.2 9.7-16.7.6-.9.6-1.7.2-2.6-1-2.4-2.8-3.9-5.1-4.8-3.5-1.3-7.1-1.5-10.7-.7-.5 0-.9.2-1.2.6zm-2-66.1c-5.6 1.5-9.9 4.7-12.8 9.7-.8 1.3-1.5 2.7-1.6 4.2-.1 2.3-.5 4.6-.3 6.9.1.9.3 1.7.3 2.7-.1 2.8.3 5.6.6 8.4.3 3 .8 5.9 1.3 8.9.8 5.1 1.9 10.3 2.9 15.4.7 3.1 1.4 6.1 2.2 9.2.3 1.1.3 1.1 1.3.5 1.4-.8 2.8-1.7 4.4-2.3.3.1.6-.1.9-.2 3.2-1.4 6.4-2.4 9.9-2.5.7 0 .8-.4.8-1 .1-4.9.4-9.7.7-14.5.2-3.1.4-6.3.7-9.4.5-4.5 1.5-9 2.3-13.5.6-3 1.1-6 .9-9.1s-1-6-3.1-8.4c-2.6-2.9-5.9-4.4-9.5-5.5-.7-.4-1.4-.1-1.9.5zm134.2 173.4c.6 0 1-.3 1.3-.5 2.4-1.3 4.9-2.7 7.3-4.1 7.1-4.2 14-8.5 20.7-13.3 5.7-4.1 11.4-8.3 16.2-13.6 1.2-1.4 2.4-2.8 3.5-4.3 3.3-4.7 4.8-10.1 5.6-15.7.5-3.3.8-6.6 1.2-9.9.4-3.8.7-7.6 1.1-11.4.1-1.1.2-2.2.3-3.4.2-2.2.5-4.4.8-6.6.2-2 .4-3.9.6-5.9.2-2.2.5-4.4.8-6.6.2-2.1.4-4.1.6-6.2.3-2.3.5-4.7.8-7 .2-1.9.4-3.8.6-5.7.3-2.3.5-4.7.8-7 .2-1.9.4-3.8.6-5.7.2-2.1.5-4.3.8-6.4.3-2.3.5-4.6.8-6.9.1-1 0-1.2-1-1.5-2.3-.5-4.6-1.1-6.9-1.6-5.6-1.3-11.2-2.6-16.8-3.9-8.6-2-17.2-4-25.8-6.1-4.3-1-8.7-2-13.1-3-1-.2-1-.2-1 .8v7.4c0 1.9.2 1.8-1.7 1.8-10.8 0-21.5 0-32.3 0-.3 0-.7 0-1 0-.8 0-1.1.2-.9 1 .2.9.1 1.9.3 2.8.1 1.2.2 2.3.3 3.5.2 2.6.6 5.1.7 7.7.1 1.7.3 3.4.4 5.1.2 3.6.7 7.2 1 10.8.1 1 .1 1.1 1.2 1.1h9.1c2.1 0 1.9-.2 1.9 1.9v54c0 2 0 2-1.9 2-2.9 0-5.9 0-8.8 0-1.3 0-1.4.1-1.5 1.5 0 .5 0 1-.1 1.6-.4 2.6-.5 5.2-.8 7.9-.3 2.5-.3 5.1-.7 7.6-.2 1.2-.2 2.4-.3 3.7-.3 2.6-.6 5.1-.8 7.7-.1 1.7-.1 1.7 1.7 1.7h32 1.1c.6 0 .9.3.9.9v1.1 21.3c.2.4.1.9.4 1.4zm12.7 53.9c-1.1-.2-2-.3-2.9-.4-.5-.1-1-.3-1.4-.7-4.8-4.5-9.7-9-14.6-13.5-5.9-5.4-11.8-10.9-17.7-16.3-5.2-4.8-10.5-9.7-15.7-14.5-5.1-4.7-10.1-9.4-15.2-14-5.2-4.8-10.4-9.6-15.6-14.4-5.3-4.9-10.5-9.7-15.8-14.6-4.7-4.3-9.4-8.6-14-13-3.1-2.9-6.2-5.7-9.3-8.5-.6-.6-.7-.6-1.1.2-.9 1.7-1.7 3.5-2.7 5.1-.4.7-.3 1.1.3 1.7 8.6 8.8 17.1 17.6 25.6 26.4 11.4 11.8 22.8 23.5 34.2 35.3s22.9 23.6 34.3 35.4c6.6 6.8 13.1 13.6 19.7 20.4.6.6 1.2 1.1 2.1 1.3 11.8 2.8 23.6 5.6 35.4 8.3.2.1.5.1.7-.1.1-.2-.1-.4-.1-.7-3.7-11.5-7.5-23-11.2-34.6-.2-.8-.7-1.3-1.3-1.8-16.6-13.6-33.1-27.2-49.6-40.8-24-19.3-47.9-39-71.7-58.6-2.2-1.8-4.4-3.6-6.6-5.4-.4-.3-.7-.6-1.2-.1-1.7 1.5-3.5 3-5.3 4.6 1.1 1 2.1 1.9 3.1 2.8 5 4.6 10 9.2 15 13.8 5.5 5.1 11.1 10.2 16.6 15.2 6.2 5.7 12.4 11.4 18.7 17.2 5.5 5.1 11.1 10.2 16.6 15.2 5 4.6 10.1 9.3 15.1 13.9 5.5 5.1 11.1 10.2 16.6 15.2 5.6 5.1 11.1 10.3 16.7 15.3 1.3 1.4 1.7 2.9 2.3 4.7zm-96.5-139.7c-4.1 7.3-8.1 14.5-12.2 21.7 5.4 4.4 10.7 8.8 16.2 13.3-.1-.9-.1-1.4-.2-2-.2-1.9-.5-3.8-.7-5.7-.5-5.2-1-10.5-1.5-15.7-.5-4.9-1.1-9.9-1.7-14.8-.8-6.8-1.5-13.5-2.3-20.3s-1.5-13.6-2.3-20.4c-.6-5.1-1.1-10.3-1.7-15.4-.3-3-.7-6-1-8.9-.2-2.1-.4-4.2-.7-6.3-.1-.7.1-.9.8-1.1 4.4-1 8.7-2 13.1-3 1-.2 1.1-.3.9-1.3-.7-3-1.3-6-1.7-9-.2-2.1-1.3-3.6-2.4-5.3-.5.1-.8.4-1.1.7-2.1 1.7-4.2 3.5-6.3 5.2-4.6 3.7-9.2 7.5-13.8 11.2-.5.4-.7.7-.4 1.4.4 1 .6 2.1.8 3.1.2 1.4.6 2.8.3 4.2-.9 4.5-1.8 8.9-2.6 13.4-1 5.3-1.9 10.5-2.6 15.9-.8 6.5-1.7 13-2.7 19.5-.2 1.3-.3 2.6.1 3.9 1.8 5.2 3 10.5 3.7 15.9.1.8.1 1.7.5 2.4.2-.1.4-.1.5-.2 3.7-1.8 7.5-3.5 11.2-5.3.4-.2.8-.4 1.3-.2 2.8 1 5.6 2 8.5 3.1zm55.1-207.4c-.3.3-.5.5-.7.7-2 2.4-4.3 4.4-6.8 6.1-6.1 4.1-13 6.4-20.1 7.9-2.3.5-4.6.8-7 1-.7 0-1 .3-.9 1v.4c.3 4 1 7.9 2.6 11.7.9 2.1 1.5 4.4 1.6 6.7.3 5.7-.5 11.2-2.5 16.5-.3.7-.2 1.3.1 2 .8 1.4 1.7 2.7 2.7 4 5.9 7.4 12.6 14.1 20.1 20.1 3.1 2.5 6.3 4.7 9.8 6.5.7.4 1.4.4 2.1 0 2.2-1.2 4.4-2.5 6.4-3.9 8.6-6.2 16-13.6 22.8-21.7 1.2-1.5 2.3-3.1 3.3-4.8.4-.7.5-1.3.2-2.1-1.1-2.9-1.8-6-2.2-9-.4-3.5-.6-7 .2-10.4.2-.9.4-1.8.8-2.7 1.8-4.1 2.8-8.4 3-12.9.1-1.2.1-1.2-1.1-1.3-4.9-.4-9.8-1.4-14.5-2.9-7.8-2.7-14.7-6.4-19.9-12.9zm-14.3 104.5c0-2.3 0-4.6 0-6.9 0-.7-.1-1.3-.4-1.9-1-1.9-1.9-3.8-2.8-5.7-2.5-5.4-4.6-11-5.8-16.8-.3-1.6-1.1-2.7-2.2-3.8-1.5-1.5-3-2.9-4.3-4.5-1.2-1.5-1.3-1.5-2.2.3-2.8 5.8-5 11.9-6.7 18.1-.9 3.4-1.7 6.8-2.2 10.3-.4 2.7-.7 5.5-1 8.2-.4 3.3-.5 6.6-.7 9.8-.2 4.3-.1 8.6-.1 12.9 0 .5 0 .9.2 1.4.3 1.1.3 1.1 1.4.9 2.9-.7 5.8-1.4 8.8-2.1 5.8-1.4 11.6-2.7 17.4-4 1-.2 1.2-.5 1-1.5-.5-2.7-.2-5.3-.5-8 0-2.2.1-4.4.1-6.7zm98.1-26.7c-4.7 3.6-9.1 7.2-13.6 10.8-.6.5-.6 1-.6 1.6.2 3.3.8 6.5 2 9.6 1.2 3 2.8 5.8 4.5 8.5 1.6 2.5 2.8 5.1 3.6 8 .5 1.9 1 3.8 1.4 5.8.2.8.4 1.1 1.2 1.3 7.1 1.6 14.1 3.3 21.2 5 .3.1.6.2 1 0-4.8-17.7-12.6-34.2-20.7-50.6zm-46.4-23.5c-.6 1.3-1.3 2.5-2.1 3.7-1.7 2.4-3.6 4.6-5.5 6.8-1.3 1.5-2.8 2.8-3.9 4.4-6.8 10.1-15.7 17.8-26 24-2.5 1.5-5.1 2.9-8 3.4-.4.1-.6.3-.6.7v1.4c-.1 4.9-.2 9.8-.3 14.7v5.8c2.8-.7 5.6-1.3 8.4-1.9.9-.2 1.3-.6 1.6-1.4 1.4-4.2 3.7-7.8 7.1-10.7 2-1.7 3.9-3.4 5.9-5.1 3.1-2.7 5.5-6 6.4-10.1.6-2.6.3-5.1-1.4-7.2-.6-.8-.6-.8.1-1.6 3.2-3.3 6-6.9 8.6-10.6.3-.4.6-.8 1-1.2 3.4-3.6 6.7-7.3 9.3-11.5.4-.6.7-.6 1.2-.3 3.6 1.7 7 3.6 10.4 5.7.9.6.9.6.3 1.5-2.4 3.3-4.4 6.8-6.2 10.5-3.3 6.7-6.1 13.6-8.8 20.5-1.9 4.8-3.7 9.6-5.5 14.4-.3.9-.3.9.6 1.1.1 0 .3.1.4.1.6.2 1 .1 1.1-.6.1-.2.2-.4.2-.7 2.6-6.8 5.1-13.6 7.9-20.3 3.7-9 7.5-18 13.5-25.8.5-.7.2-.9-.3-1.3-4.8-3.1-9.8-5.8-15-8.1 0-.2-.2-.2-.4-.3zm51.4 8.2c-2.9-2.6-6-4.6-9.7-5.6-4.6-1.3-9.4-1.6-14.1-2-.7-.1-1.1.3-1.5.8-2.6 3-5 6.2-7.2 9.4-8.4 12.4-14.7 26-19.5 40.2-.4 1.1-.7 2.2-1.1 3.4-.2.5 0 .7.4.8.8.3 1 .2 1.4-.8 2.7-7.5 6-14.7 9.7-21.8 1.9-3.8 3.9-7.5 6.4-11 2.1-3 4.9-4.6 8.7-4.2 2.3.2 4.6.2 6.9-.2 2.5-.5 5-1.1 7.4-1.8.3-.1.6-.3 1.1 0-14.2 12-26.9 25.3-37.3 40.7 1 .3 1 .3 1.5-.4 2.2-2.9 4.5-5.6 6.9-8.2 6.5-7.2 13.3-14.2 20.3-21 4.4-4.3 8.9-8.5 13.4-12.6 2-1.9 4.1-3.7 6.3-5.7zm-150.5 146.4c-1.3-.6-2.3-.9-3.7-.3-5.3 2.6-10.6 5-15.9 7.5-1.8.9-3.7 1.7-5.5 2.5-2 .9-4 1.9-6 2.8-.7.3-1 .8-1.1 1.5-.2 1.4-.4 2.9-.6 4.3-.4 2.9-.8 5.8-1.2 8.6-.4 3-.9 5.9-1.3 8.9-.4 2.9-.8 5.8-1.2 8.6-.3 2 0 2.8 1.7 4 .3-.2.4-.6.6-.9l6.9-14.4c1.4-2.9 2.7-5.7 4-8.6.5-1.1 1.2-2 2-2.9 4.3-4.3 8.6-8.6 12.8-13 2.3-2.5 4.8-4.8 7.2-7.2.5-.4.9-.8 1.3-1.4zm96.6-168c.2 3.1.8 5.8 1.6 8.4.2.6.5.9 1.1 1.2 6 2.7 12 5.7 17.7 9 .5.3.8.2 1.1-.2 1.1-1.5 2.3-2.9 3.5-4.3.5-.6 1-1 1.5-1.8-8.6-4.8-17.3-8.8-26.5-12.3zm-140.3 182.4c-.1.1-.1.2-.1.2v14c0 .6.3.8.7 1.1 1.4.9 2.9.9 4.5.8.4 0 .5-.3.6-.7.1-.7.2-1.5.4-2.2.4-2.7.9-5.4.4-8.1-.3-1.5-.3-3-.4-4.5-2.2-.1-4.2.1-6.1-.6zm-7.2-2.6c.2 4.3.4 8.3.6 12.4 0 .2.1.5.2.7.5 1.5 1.7 1.7 3 1.9 1.2.1 1.2.1 1.2-1 0-2.5 0-5 0-7.5 0-1.3 0-2.5 0-3.8 0-.5-.1-.8-.7-.8-1.6-.1-2.9-.9-4.3-1.9zm-15.3-27.2c0-.1.1-.1.1-.2-1.3-1-2.5-2-3.8-2.9-.8-.6-1.4-1.3-1.9-2.2-1-2-2.1-3.9-3.1-5.9-.2-.3-.2-.7-.7-.9.5 3.2.9 6.4 1.3 9.5.1.5.4.7.8.8 2.4.7 4.8 1.2 7.3 1.8zm10.5 24.8c-.1.6 0 1 .1 1.5.6 3.1 1.2 6.3 1.8 9.4.2 1.3.3 1.4 1.8 1.5-.1-3.3-.1-6.5-.3-9.7 0-.4 0-.8-.5-1.1-.9-.5-1.8-1-2.9-1.6zm.2 9.5c0-.2.1-.3.1-.3-.7-3.1-1.5-6.2-2.2-9.3-.1-.3-.2-.5-.4-.7-1-.4-1.7-1.1-2.7-1.8.2.6.3 1.1.4 1.6.7 2.6 1.5 5.2 2.1 7.9.3 1.5 1.3 2.2 2.7 2.6z" fill="#080808" fill-rule="evenodd"/><path d="m261.1 155.6c-.1 0-.2-.1-.2-.1 0-.4-.2-.8.2-1z" fill="#361f55" fill-rule="evenodd"/><path d="m170.9 314.2c-.3-.5-.1-1-.1-1.5 0-7.1 0-14.2 0-21.3 0-.4 0-.8 0-1.1 0-.6-.3-.9-.9-.9-.4 0-.8 0-1.1 0-10.7 0-21.3 0-32 0-1.7 0-1.8 0-1.7-1.7.2-2.6.5-5.1.8-7.7.1-1.2.1-2.4.3-3.7.3-2.5.4-5.1.7-7.6.3-2.6.3-5.3.8-7.9.1-.5 0-1 .1-1.6.1-1.4.1-1.5 1.5-1.5h8.8c1.9 0 1.9 0 1.9-2 0-18 0-36 0-54 0-2.1.2-1.9-1.9-1.9-3 0-6 0-9.1 0-1.1 0-1.1 0-1.2-1.1-.4-3.6-.8-7.2-1-10.8-.1-1.7-.3-3.4-.4-5.1-.2-2.6-.5-5.1-.7-7.7-.1-1.2-.2-2.3-.3-3.5-.1-.9 0-1.9-.3-2.8-.2-.8 0-1 .9-1h1 32.3c1.9 0 1.7.1 1.7-1.8 0-2.5 0-4.9 0-7.4 0-1 0-1.1 1-.8 4.4 1 8.7 2 13.1 3 8.6 2 17.2 4 25.8 6.1 5.6 1.3 11.2 2.6 16.8 3.9 2.3.5 4.6 1 6.9 1.6 1 .2 1.1.5 1 1.5-.3 2.3-.5 4.6-.8 6.9-.3 2.1-.5 4.3-.8 6.4-.2 1.9-.4 3.8-.6 5.7-.3 2.3-.5 4.7-.8 7-.2 1.9-.4 3.8-.6 5.7-.3 2.3-.5 4.7-.8 7-.2 2.1-.4 4.1-.6 6.2-.2 2.2-.5 4.4-.8 6.6-.2 2-.4 3.9-.6 5.9-.2 2.2-.5 4.4-.8 6.6-.1 1.1-.2 2.2-.3 3.4-.4 3.8-.7 7.6-1.1 11.4-.3 3.3-.7 6.6-1.2 9.9-.8 5.6-2.3 11-5.6 15.7-1.1 1.5-2.2 2.9-3.5 4.3-4.8 5.2-10.5 9.5-16.2 13.6-6.7 4.8-13.6 9.2-20.7 13.3-2.4 1.4-4.8 2.7-7.3 4.1-.7.3-1.1.6-1.6.6zm-32-28h1.6 60.2.7c.6.1.9-.2.8-.8-.1-.4 0-.8-.1-1.1-.6-6.6-1.2-13.2-1.8-19.9-.1-1.2-.1-2.4-.4-3.6-.5-.2-1-.1-1.4-.1-3 0-5.9 0-8.9 0-2 0-1.8.3-1.8-1.7 0-20.2 0-40.4 0-60.6 0-.3 0-.7 0-1 0-.6.2-.8.8-.7h1 8.6c1.4 0 1.4 0 1.5-1.3.3-2.8.6-5.5.9-8.3.5-4.7 1.1-9.5 1.6-14.2.2-1.7.2-1.5-1.4-1.5-20.1 0-40.1 0-60.2 0-1.7 0-1.7-.2-1.5 1.6.3 3.7.7 7.4 1.1 11.1.4 3.9.7 7.7 1.1 11.6.1 1.2.1 1.2 1.4 1.2h9.2c1.8 0 1.6-.1 1.6 1.6v39.4 22c0 1.2 0 1.3-1.2 1.3-3.1 0-6.2 0-9.3 0-1.5 0-1.2.1-1.3 1.2-.6 5.8-1.3 11.6-1.9 17.4-.4 2-.6 4.1-.9 6.4z" fill="#361f55" fill-rule="evenodd"/><path d="m98.2 269c-1.4-.7-2.7-1.4-3-3.3-.8-5.5-1.4-11-1.9-16.6-.4-4-.8-8-1.2-12-.6-5.7-1.3-11.4-1.9-17.2-.6-5.5-1.2-11-1.9-16.5-.7-6.3-1.4-12.7-2.1-19-.6-5.5-1.2-11-1.8-16.5-.4-3.7-.8-7.4-1.2-11.1-.1-1.2-.1-1.2 1.1-1.5 11.9-2.8 23.9-5.6 35.8-8.4 15.6-3.6 31.2-7.3 46.8-11 3.3-.8 3.3-.8 6.5 0 20.2 4.7 40.4 9.4 60.6 14.2 7.3 1.7 14.6 3.4 21.9 5.1.3.1.5.2.8.2.6.1.7.4.6.9-.3 2.2-.5 4.4-.7 6.6-.7 6.6-1.4 13.1-2.2 19.7-.6 5.4-1.2 10.9-1.8 16.3-.6 5.6-1.2 11.2-1.8 16.7s-1.3 11-1.8 16.5c-.6 5.9-1.2 11.7-1.8 17.6-.8 7.5-1.4 14.9-3.1 22.3-2.1 9-6.3 16.9-12.6 23.7-5.8 6.3-12.5 11.5-19.4 16.5-10.9 7.8-22.4 14.8-34.1 21.1-.9.5-1.3.2-1.9-.3-7.7-6.4-15.4-12.7-23.2-19.1-.2-.2-.4-.5-.8-.5.6-.3 1 .1 1.4.4 4.5 2.7 9 5.3 13.6 7.8.7.4 1.5.8 2.2 1.2.8.5 1.4.4 2.2 0 4.8-2.6 9.6-5.3 14.3-8.1 9.4-5.7 18.4-11.8 26.8-18.8 4-3.3 7.6-6.9 10.8-10.9 4.8-6.2 7.6-13.2 9-20.8 1.1-6.6 1.7-13.2 2.3-19.8.4-4 .8-8.1 1.3-12.1.6-5.8 1.2-11.5 1.8-17.3.5-4.8 1-9.6 1.6-14.3.6-5.7 1.2-11.4 1.8-17.2.5-4.8 1-9.7 1.6-14.5.3-2.2.3-2.2-1.8-2.8-23.1-5.6-46.2-11.2-69.2-16.8-.9-.2-1.7-.2-2.6 0-21.7 5.3-43.3 10.5-65 15.7-1.8.4-3.6.9-5.4 1.3-.8.2-1 .5-.9 1.2.2 2.1.5 4.1.7 6.2.6 5.9 1.2 11.7 1.9 17.6.5 4.7 1 9.5 1.5 14.2.6 5.8 1.2 11.5 1.8 17.3.5 4.7 1 9.4 1.5 14.1.5 4.5.9 8.9 1.3 13.4.7 6.6 1.3 13.1 3.1 19.5 1.2 4.3 3 8.2 5.4 11.9.2.4.5.7.6 1.1-.1.1-.1.1-.2.2-3-2.5-6.1-5-9.1-7.5-.2-.2-.4-.4-.6-.6.1-.4-.1-.7-.2-1.1-1.4-4.2-2.3-8.4-2.6-12.8-.2-2.6-.4-5.3-.7-7.9-.4-4.6-.9-9.2-1.3-13.8-.2-2.7-.4-5.4-.7-8.2-.4-4.6-.9-9.3-1.3-13.9-.2-2.7-.4-5.3-.7-8-.4-4.7-.9-9.5-1.3-14.2-.2-2.6-.4-5.2-.7-7.9-.4-4.6-.9-9.2-1.3-13.8-.3-2.9-.5-5.9-.8-8.8-.1-1.2 0-1.3 1.2-1.6 10.7-2.5 21.5-5 32.2-7.5 14.2-3.3 28.3-6.6 42.5-9.9.7-.2 1.3-.1 1.9 0 11.6 2.7 23.2 5.4 34.8 8.1 9.5 2.2 18.9 4.4 28.4 6.6 3.9.9 7.7 1.8 11.6 2.7.6.1.9.3.8 1-.2 1.3-.2 2.6-.4 3.9-.4 4.8-.9 9.7-1.3 14.5-.4 4.7-.8 9.3-1.2 14s-.9 9.5-1.3 14.2c-.4 4.6-.8 9.2-1.3 13.8-.3 3.8-.7 7.5-1 11.3-.4 4.6-.8 9.2-1.3 13.8-.4 4.7-.7 9.4-1.3 14.1-1.1 9.5-4.7 17.9-10.9 25.2-5.1 6-10.8 11.4-16.4 16.8-3.2 3.1-6.5 6.1-9.8 9.2-.3.3-.6.5-.7 1 .5 0 .7-.2 1-.4 3.4-2.2 6.7-4.4 10-6.7 6.8-4.9 13.4-9.9 19.1-16.2 4.2-4.6 7.6-9.7 9.9-15.5 2.5-6.4 3.5-13.1 4.2-19.9.5-4.3.9-8.6 1.3-12.9.4-3.8.8-7.6 1.2-11.4.5-4.8 1.1-9.6 1.6-14.3.5-4.6 1-9.2 1.5-13.8.5-4.7 1-9.4 1.6-14.1.5-4.6 1-9.2 1.6-13.8.6-5.6 1.2-11.3 1.9-16.9.2-1.3.2-1.3-1.2-1.7-14.1-3.2-28.2-6.4-42.3-9.7-13.4-3.1-26.7-6.1-40.1-9.2-.8-.2-1.7-.2-2.5 0-5.1 1.2-10.3 2.4-15.4 3.5-11.9 2.7-23.8 5.4-35.6 8.1-9.7 2.2-19.4 4.4-29 6.6-.9.2-1.8.4-2.8.6-.4.1-.7.2-.6.8.4 3.4.7 6.7 1.1 10.1.6 5.6 1.3 11.2 1.9 16.8.5 4.5 1 9.1 1.5 13.6.7 6.3 1.4 12.6 2.1 18.9.5 4.7 1 9.4 1.5 14.2.9 7 1.5 13.9 2.2 20.9.3 2.9.6 5.8 1.1 8.7.1 2.7.4 4.8.7 6.9z" fill="none"/><path d="m183.6 368.1c-.6-1.8-1-3.4-2.4-4.6-5.6-5-11.1-10.2-16.7-15.3-5.5-5.1-11.1-10.2-16.6-15.2-5-4.6-10.1-9.3-15.1-13.9-5.5-5.1-11.1-10.2-16.6-15.2-6.2-5.7-12.4-11.4-18.7-17.2-5.5-5.1-11.1-10.2-16.6-15.2-5-4.6-10-9.2-15-13.8-1-.9-2-1.8-3.1-2.8 1.8-1.6 3.6-3.1 5.3-4.6.5-.4.8-.2 1.2.1l6.6 5.4c23.9 19.6 47.7 39.3 71.6 58.9 16.5 13.6 33.1 27.2 49.6 40.8.6.5 1 1 1.3 1.8 3.7 11.5 7.4 23 11.2 34.6.1.2.2.4.1.7-.2.2-.4.1-.7.1-11.8-2.8-23.6-5.6-35.4-8.3-.9-.2-1.5-.7-2.1-1.3-6.6-6.8-13.1-13.6-19.7-20.4-11.4-11.8-22.9-23.6-34.3-35.4s-22.8-23.5-34.2-35.3c-8.5-8.8-17.1-17.6-25.6-26.4-.6-.6-.7-1-.3-1.7.9-1.7 1.8-3.4 2.7-5.1.4-.8.4-.8 1.1-.2 3.1 2.8 6.2 5.7 9.3 8.5 4.7 4.3 9.4 8.6 14 13 5.3 4.9 10.5 9.7 15.8 14.6 5.2 4.8 10.4 9.6 15.6 14.4 5.1 4.7 10.1 9.4 15.2 14 5.2 4.8 10.5 9.7 15.7 14.5 5.9 5.4 11.8 10.9 17.7 16.3 4.9 4.5 9.7 9 14.6 13.5.4.4.8.6 1.4.7 1.1-.3 2-.1 3.1 0zm23.6 21.9c0 .1.1.2.2.1s0-.2-.1-.2c.1-.3 0-.6-.1-.8-3.3-10.3-6.7-20.6-10-30.9-.2-.8-.6-1.3-1.2-1.8-3.8-3.1-7.6-6.2-11.4-9.3-12.1-9.9-24.1-19.8-36.2-29.7-11.9-9.8-23.9-19.6-35.8-29.5-12.6-10.3-25.1-20.7-37.7-31-1.8-1.5-3.6-3-5.5-4.5-.3-.2-.6-.6-1-.2-1 .9-2.1 1.7-3.1 2.8.4.4.8.7 1.2 1.1 3 2.8 6 5.6 9.1 8.3 7.3 6.7 14.6 13.4 21.9 20.1 7.6 7 15.1 13.9 22.7 20.9 6.5 6 13 11.9 19.5 17.9 6.8 6.2 13.5 12.5 20.3 18.7 7.3 6.7 14.6 13.5 22 20.2 1.3 1.2 2.3 2.4 2.7 4.1.2.9.7 1.7.9 2.5.3 1.2 1 2.1 2 2.8.2.2.4.4.6.6 6 5.8 12.1 11.5 18.1 17.3.3.1.5.5.9.5z" fill="none"/><path d="m98.2 269c-.3-2.1-.6-4.2-.9-6.3-.5-2.9-.8-5.8-1.1-8.7-.7-7-1.3-13.9-2.2-20.9-.6-4.7-1-9.4-1.5-14.2-.7-6.3-1.4-12.6-2.1-18.9-.5-4.5-1-9.1-1.5-13.6-.6-5.6-1.3-11.2-1.9-16.8-.4-3.4-.7-6.7-1.1-10.1-.1-.5.2-.7.6-.8.9-.2 1.8-.4 2.8-.6 9.7-2.2 19.4-4.4 29-6.6 11.9-2.7 23.8-5.4 35.6-8.1 5.1-1.2 10.3-2.3 15.4-3.5.9-.2 1.7-.2 2.5 0 13.4 3.1 26.7 6.1 40.1 9.2 14.1 3.2 28.2 6.4 42.3 9.7 1.3.3 1.3.3 1.2 1.7-.6 5.6-1.3 11.3-1.9 16.9-.5 4.6-1 9.2-1.6 13.8-.5 4.7-1 9.4-1.6 14.1-.5 4.6-1 9.2-1.5 13.8-.5 4.8-1.1 9.6-1.6 14.3-.4 3.8-.8 7.6-1.2 11.4-.4 4.3-.9 8.6-1.3 12.9-.8 6.8-1.8 13.5-4.2 19.9-2.3 5.8-5.7 10.9-9.9 15.5-5.7 6.2-12.3 11.3-19.1 16.2-3.2 2.4-6.6 4.6-10 6.7-.3.2-.5.4-1 .4.1-.5.4-.7.7-1 3.3-3.1 6.6-6.1 9.8-9.2 5.6-5.4 11.3-10.9 16.4-16.8 6.2-7.3 9.8-15.7 10.9-25.2.6-4.7.8-9.4 1.3-14.1.4-4.6.8-9.2 1.3-13.8.3-3.8.7-7.5 1-11.3.4-4.6.8-9.2 1.3-13.8.4-4.7.9-9.5 1.3-14.2s.8-9.3 1.2-14c.4-4.8.9-9.7 1.3-14.5.1-1.3.2-2.6.4-3.9.1-.7-.1-.9-.8-1-3.9-.9-7.7-1.8-11.6-2.7-9.5-2.2-18.9-4.4-28.4-6.6-11.6-2.7-23.2-5.4-34.8-8.1-.6-.1-1.3-.2-1.9 0-14.2 3.3-28.3 6.6-42.5 9.9-10.7 2.5-21.4 5-32.2 7.5-1.2.3-1.3.4-1.2 1.6.3 2.9.6 5.9.8 8.8.4 4.6.9 9.2 1.3 13.8.2 2.6.4 5.2.7 7.9.4 4.7.9 9.5 1.3 14.2.2 2.7.4 5.3.7 8 .4 4.6.9 9.3 1.3 13.9.2 2.7.4 5.4.7 8.2.4 4.6.9 9.2 1.3 13.8.2 2.6.5 5.2.7 7.9.3 4.4 1.1 8.7 2.6 12.8.1.4.3.7.2 1.1-.9-.3-1.4-1.1-2.1-1.6-1.3-1-2.6-2-3.8-3.1-.5-.4-.8-.9-1.3-1.3 0-.5-.1-.6-.2-.6z" fill="#361f55" fill-rule="evenodd"/><path d="m87.1 228.4c-2.9-1.1-5.7-2.1-8.5-3.2-.5-.2-.9 0-1.3.2-3.7 1.8-7.5 3.5-11.2 5.3-.1.1-.3.1-.5.2-.4-.7-.4-1.6-.5-2.4-.8-5.4-1.9-10.7-3.7-15.9-.4-1.3-.3-2.6-.1-3.9 1.1-6.5 1.9-13 2.7-19.5.7-5.3 1.6-10.6 2.6-15.9.8-4.5 1.7-8.9 2.6-13.4.3-1.4-.1-2.8-.3-4.2-.2-1.1-.4-2.1-.8-3.1-.3-.7-.1-1 .4-1.4 4.6-3.7 9.2-7.4 13.8-11.2 2.1-1.7 4.2-3.4 6.3-5.2.3-.3.6-.6 1.1-.7 1.1 1.6 2.1 3.2 2.4 5.3.3 3 1 6 1.7 9 .2 1 .2 1.1-.9 1.3-4.3 1-8.7 2.1-13.1 3-.7.2-.9.4-.8 1.1.2 2.1.4 4.2.7 6.3.3 3 .7 6 1 8.9.6 5.1 1.1 10.3 1.7 15.4.8 6.8 1.5 13.6 2.3 20.4s1.5 13.5 2.3 20.3c.6 4.9 1.1 9.9 1.7 14.8.5 5.2 1 10.5 1.5 15.7.2 1.9.5 3.8.7 5.7.1.6.1 1.1.2 2-5.5-4.5-10.8-8.9-16.2-13.3 4.1-7.1 8.1-14.2 12.2-21.6z" fill="none"/><path d="m142.2 21c5.2 6.5 12.1 10.2 19.8 12.7 4.7 1.5 9.6 2.5 14.5 2.9 1.3.1 1.2.1 1.1 1.3-.3 4.5-1.2 8.8-3 12.9-.4.9-.6 1.8-.8 2.7-.7 3.5-.6 7-.2 10.4.4 3.1 1.1 6.1 2.2 9 .3.8.2 1.4-.2 2.1-1 1.7-2.1 3.3-3.3 4.8-6.8 8.1-14.2 15.5-22.8 21.7-2 1.5-4.2 2.8-6.4 3.9-.7.4-1.4.4-2.1 0-3.5-1.8-6.7-4-9.8-6.5-7.4-6-14.1-12.6-20.1-20.1-1-1.3-1.9-2.6-2.7-4-.4-.7-.4-1.3-.1-2 1.9-5.3 2.8-10.8 2.5-16.5-.1-2.3-.7-4.6-1.6-6.7-1.6-3.7-2.3-7.7-2.6-11.7 0-.1 0-.3 0-.4-.1-.7.2-1 .9-1 2.4-.1 4.7-.5 7-1 7.2-1.4 14-3.7 20.1-7.9 2.6-1.7 4.9-3.7 6.8-6.1.3 0 .5-.2.8-.5zm-18.8 65.5c0 .1.1.2.1.2.1-.1.1-.2 0-.3 0-.2 0-.5-.1-.7-1.2-4.6-1.7-9.3-2-14-.2-2.5-.2-5.1-.4-7.6 0-.4.1-.9-.4-1.1-1.1-.5-2.1-1.2-3.4-1.5 0 .7 0 1.2.1 1.8.4 2.9.7 5.8 1.1 8.7.6 3.8 1.3 7.6 2.4 11.3.3 1.5 1.2 2.5 2.6 3.2zm48.1-44.3c.4.4.2.7.2 1-.1 3.8-1.2 7.4-2.7 10.9-.4.8-.9 1.4-1.6 1.9-1.2.8-2.5 1.5-3.8 2.2-6.5 3.1-13.3 5.3-20.2 7.3-1.5.4-1.3.1-1.3 1.7v35.1 1.2c.7-.4 1.2-.6 1.7-.9 2.2-1.2 4.2-2.7 6.2-4.2 6-4.6 11.4-9.9 16.6-15.4 2.3-2.5 4.6-5.2 6.5-8 .4-.6.6-1.2.3-2-1.2-3.4-1.9-6.9-2.2-10.5-.5-4.9-.1-9.6 1.8-14.1 1.2-2.8 1.8-5.7 2.2-8.6.1-.7-.1-1-.8-1.1-4.6-.6-9.1-1.5-13.5-3-6.9-2.3-13.1-5.5-18.2-10.7-.1-.1-.3-.2-.5-.1v29.3c10.3-2.9 20.3-6.3 29.3-12zm-1.9 3.9c-.4.1-.5.1-.6.2-8.1 4.3-16.6 7.6-25.5 9.9-.8.2-1.6.3-2.5.1-8.7-2.4-17.2-5.5-25.2-9.8-.3-.2-.7-.5-1.2-.4.3 1 .5 1.9.9 2.7 1.5 4.3 2.3 5.2 6.4 7.2l.6.3c6.1 2.9 12.5 4.9 19 6.8.6.2 1.1.1 1.6-.1 4.4-1.3 8.7-2.6 13-4.3 3.1-1.2 6.1-2.4 9-4.2.7-.4 1.4-.8 1.8-1.6.4-.9 1-1.7 1.4-2.6.6-1.1 1.1-2.5 1.3-4.2zm-31.6-17.4c-.6-.1-.8.3-1.1.5-8.1 5.3-16.9 8.5-26.6 9.4-.4 0-.7.1-.8.6-.1 1.5-.2 3.1.3 4.6.2.7.5 1 1.3.8 2.2-.8 4.3-.4 6.3.7.1 0 .2.1.3.1 2.9 1.2 5.7 2.5 8.6 3.6s5.9 1.9 8.9 2.8c.8.2 1.5.6 2.5.6-2.3-8-3.1-15.9.3-23.7zm-7.5 38.8c-.2.3-.1.6-.1.8.4 4.2.9 8.4 1.6 12.6.6 4 1.4 8.1 2.5 12 .5 1.8 1.6 2.8 3 3.6.2-.3.1-.6 0-.9-1.4-5.4-2-10.9-2.5-16.5-.3-3.2-.5-6.5-.5-9.7 0-.6-.2-.9-.8-1.1-1.1-.1-2.2-.4-3.2-.8zm-6.7-2.4v.9c.2 3.8.5 7.5 1 11.3.5 3.9 1.3 7.7 2.3 11.5.5 1.7 1.6 2.7 3 3.6 0-.4 0-.6-.1-.8-1.1-4.6-1.6-9.4-2-14.1-.3-3.3-.5-6.7-.5-10 0-.4 0-.9-.5-1-.9-.5-1.9-1.1-3.2-1.4z" fill="none"/><path d="m127.9 125.5c0 2.2-.2 4.5 0 6.6.3 2.7 0 5.4.5 8 .2 1-.1 1.3-1 1.5-5.8 1.3-11.6 2.7-17.4 4-2.9.7-5.9 1.4-8.8 2.1-1.1.3-1.1.2-1.4-.9-.1-.5-.2-.9-.2-1.4 0-4.3-.2-8.6.1-12.9.2-3.3.3-6.6.7-9.8.3-2.7.6-5.5 1-8.2.5-3.5 1.3-6.9 2.2-10.3 1.7-6.2 3.8-12.3 6.7-18.1.9-1.8 1-1.8 2.2-.3 1.3 1.6 2.8 3 4.3 4.5 1.1 1.1 1.8 2.2 2.2 3.8 1.3 5.8 3.4 11.4 5.8 16.8.9 1.9 1.8 3.8 2.8 5.7.3.6.4 1.2.4 1.9-.1 2.4-.1 4.7-.1 7z" fill="#361f55" fill-rule="evenodd"/><path d="m36.7 140.8c.5-.6 1.3-.9 2-.6 3.6 1.1 7 2.6 9.5 5.5 2.2 2.4 3 5.3 3.1 8.4.2 3.1-.4 6.1-.9 9.1-.8 4.5-1.8 9-2.3 13.5-.3 3.1-.5 6.3-.7 9.4-.4 4.8-.6 9.7-.7 14.5 0 .6-.1 1-.8 1-3.5.1-6.8 1.1-9.9 2.5-.3.1-.6.3-.9.2-.1-.3-.2-.5-.3-.8-2-7.2-3-14.6-3.2-22-.1-4.4-.1-8.8.2-13.1.5-6.5 1.4-13 2.8-19.4.5-2.8 1.4-5.4 2.1-8.2z" fill="none"/><path d="m226 98.8c8.1 16.5 15.8 32.9 20.7 50.5-.3.3-.7.1-1 0-7.1-1.7-14.1-3.3-21.2-5-.8-.2-1-.5-1.2-1.3-.4-1.9-.9-3.9-1.4-5.8-.8-2.8-2-5.5-3.6-8-1.7-2.7-3.3-5.5-4.5-8.5-1.2-3.1-1.8-6.3-2-9.6 0-.6 0-1.2.6-1.6 4.5-3.5 8.9-7.1 13.6-10.7z" fill="none"/><path d="m179.6 75.3c.2.1.4.1.6.2 5.2 2.3 10.2 5.1 15 8.1.6.4.8.6.3 1.3-6 7.8-9.8 16.8-13.5 25.8-2.8 6.7-5.3 13.5-7.9 20.3-.1.2-.2.4-.2.7-.2.7-.5.8-1.1.6-.1-.1-.3-.1-.4-.1-.9-.2-.9-.2-.6-1.1 1.8-4.8 3.6-9.6 5.5-14.4 2.7-6.9 5.5-13.8 8.8-20.5 1.8-3.6 3.8-7.2 6.2-10.5.6-.9.6-.9-.3-1.5-3.4-2.1-6.9-4-10.4-5.7-.5-.3-.9-.3-1.2.3-2.6 4.3-6 7.9-9.3 11.5-.4.4-.7.8-1 1.2-2.6 3.8-5.5 7.3-8.6 10.6-.7.8-.7.8-.1 1.6 1.7 2.2 2.1 4.6 1.4 7.2-1 4.1-3.3 7.3-6.4 10.1-1.9 1.7-3.9 3.4-5.9 5.1-3.3 2.9-5.7 6.5-7.1 10.7-.3.9-.8 1.3-1.6 1.4-2.8.6-5.6 1.3-8.4 1.9 0-2 0-3.9 0-5.8.1-4.9.2-9.8.3-14.7 0-.5 0-.9 0-1.4 0-.4.1-.6.6-.7 2.9-.5 5.5-1.9 8-3.4 10.3-6.2 19.2-14 26-24 1.1-1.7 2.6-3 3.9-4.4 1.9-2.2 3.8-4.4 5.5-6.8.6-1.1 1.3-2.3 1.9-3.6z" fill="none"/><path d="m231 83.5c-2.2 2-4.3 3.8-6.3 5.7-4.6 4.1-9 8.3-13.4 12.6-7 6.8-13.7 13.8-20.3 21-2.4 2.7-4.8 5.4-6.9 8.2-.5.7-.5.7-1.5.4 10.4-15.4 23-28.7 37.3-40.7-.5-.3-.8-.1-1.1 0-2.4.7-4.9 1.3-7.4 1.8-2.3.5-4.6.4-6.9.2-3.8-.3-6.6 1.3-8.7 4.2-2.5 3.5-4.5 7.2-6.4 11-3.6 7.1-7 14.3-9.7 21.8-.4 1-.5 1.1-1.4.8-.5-.1-.6-.4-.4-.8.4-1.1.7-2.2 1.1-3.4 4.8-14.2 11.1-27.7 19.5-40.2 2.2-3.3 4.6-6.4 7.2-9.4.4-.5.8-.8 1.5-.8 4.8.3 9.5.7 14.1 2 3.7 1 6.8 3 9.7 5.6z" fill="none"/><path d="m38.7 206.9c.3-.4.7-.6 1.2-.6 3.6-.7 7.2-.6 10.7.7 2.3.9 4.1 2.4 5.1 4.8.4.9.3 1.7-.2 2.6-3.4 5.5-6.7 11-9.7 16.7-1.7 3.2-3.2 6.4-5.1 9.5-.5.8-1 1-1.8.9-4.7-.5-9.2-1.9-13.6-3.7-.2-.1-.4-.3-.5-.5.6-1.4 1.2-2.8 1.6-4.2 2.5-7.1 5.4-13.9 9.1-20.5 1.1-1.9 2.1-3.8 3.2-5.7z" fill="none"/><path d="m112 33.5c-.9.5-2 .5-3 .6 1.5-12 12.5-27.2 30.7-28.6 18.7-1.4 33 12.7 35.6 28.5-1.2.2-2.3-.2-3.5-.3-.5 0-.5-.4-.5-.8-.1-1.9-.5-3.7-1.1-5.5-2.3-6.3-6.6-11-12.2-14.4-4.3-2.6-9-3.8-13.9-4.2-2.2-.2-4.3 0-6.5.1-.6 0-1.1.2-1.7.3.1.6.6.6.9.8 3.1 1.9 3.9 4.9 4.1 8.2 0 .5-.3.8-.6 1.1-2.4 3.2-5.5 5.7-8.9 7.8-3 1.8-6.1 3.1-9.4 4.2-.4.1-.8.3-1.2.2-.5-2.5-.1-4.9.7-7.2 1.4-4.2 4.1-7.6 7.3-10.6 1.2-1.1 2.6-2.2 3.9-3.3-.1 0-.2-.1-.3-.1-.3.1-.5.2-.8.3-3.2 1.3-6.3 2.9-9.2 4.9-2.7 2-5.2 4.3-6.6 7.4-1.2 2.7-2.3 5.4-3.2 8.3-.3.7-.6 1.5-.6 2.3z" fill="none"/><path d="m36.7 140.8c-.7 2.7-1.6 5.4-2.2 8.2-1.4 6.4-2.3 12.9-2.8 19.4-.3 4.4-.3 8.8-.2 13.1.2 7.5 1.1 14.8 3.2 22 .1.3.2.5.3.8-1.5.6-2.9 1.5-4.4 2.3-1 .6-1 .6-1.3-.5-.7-3.1-1.5-6.1-2.2-9.2-1.1-5.1-2.1-10.2-2.9-15.4-.5-3-1-5.9-1.3-8.9-.3-2.8-.7-5.6-.6-8.4 0-.9-.2-1.8-.3-2.7-.1-2.3.2-4.6.3-6.9.1-1.5.9-2.9 1.6-4.2 2.9-4.9 7.2-8.1 12.8-9.6z" fill="#361f55" fill-rule="evenodd"/><path d="m80.5 229.9c-.4.7-.9 1.1-1.3 1.5-2.4 2.4-4.9 4.8-7.2 7.2-4.2 4.4-8.5 8.7-12.8 13-.8.8-1.5 1.8-2 2.9-1.3 2.9-2.7 5.7-4 8.6-2.3 4.8-4.6 9.6-6.9 14.4-.2.3-.3.7-.6.9-1.8-1.2-2.1-2-1.7-4 .5-2.9.8-5.8 1.2-8.6.4-3 .9-5.9 1.3-8.9.4-2.9.8-5.8 1.2-8.6.2-1.4.4-2.9.6-4.3.1-.7.4-1.2 1.1-1.5 2-.9 4-1.9 6-2.8 1.8-.9 3.7-1.7 5.5-2.5 5.3-2.5 10.6-4.9 15.9-7.5 1.4-.8 2.5-.5 3.7.2z" fill="#361f55" fill-rule="evenodd"/><path d="m71.3 89.2c.5 1.3.4 2.6.5 3.9.8 7.1 1.9 14.2 4.2 21 .3 1 .4 2 .1 3-.3 1.2-.7 2.4-1.2 3.5-1.8 4.1-3.9 8-6.7 11.4-.2.3-.5.6-.8.8-.1.1-.2.1-.3.1-.2-.5-.5-1.1-.8-1.6-2.9-6.4-5.8-12.9-9-19.1-.3-.5-.6-1.1-.9-1.6-.2-.4-.2-.7-.1-1.1.3-.2.5-.6.7-.9 1.9-2.9 3.7-5.8 5.7-8.6 2.8-3.6 5.6-7.3 8.6-10.8z" fill="none"/><path d="m97.9 57.3c-.4 1.4-1.3 2.6-1.9 3.9-.2.4-.5.4-.8.4-.9.1-1.8.1-2.7.4-1.9.5-3.6 1.5-4.8 3-.9 1.1-2 2-3.2 2.8-.8.5-1.6.8-2.5.9-1.4.1-1.9-.3-2.5-1.5-.2-.4-.2-.9-.7-1.2-.4.8-.5 1.6-.6 2.4-.9 5.2-.9 10.3-.4 15.5 1.2 12.6 4.6 24.7 10.3 36.1.3.7.7 1.3 1.1 2 1.2 2.1 1.4 3 1.4 5.8-.1-.1-.2-.2-.3-.3-3.6-5.9-7.1-11.8-9.5-18.3-2-5.3-3.3-10.8-4.1-16.4-.9-5.8-1.5-11.6-1.4-17.5.1-4.2.5-8.4 1.6-12.5.1-.3.1-.5.3-.8.5-.4 1-.7 1.4-1.2 3.1-2.9 6.8-4.4 11.1-4.3 2.6.1 5.4.5 8.2.8z" fill="none"/><path d="m97.9 57.3c-2.8-.4-5.6-.7-8.4-.8-4.3-.1-8 1.4-11.1 4.3-.4.4-.9.8-1.4 1.2 1.6-5.6 4.5-10.4 9.3-13.9 1.8-1.3 3.8-2 6-2.4 4-.7 8-.2 11.8 1 .8.3 1.7.6 2.7 1.1-3.8 2.6-6.7 5.8-8.9 9.5z" fill="#361f55" fill-rule="evenodd"/><path d="m71.3 89.2c-3 3.5-5.8 7.2-8.5 10.9-2 2.8-3.9 5.7-5.7 8.6-.2.3-.3.7-.7.9-.1 0-.2-.1-.2-.1-2.6-2.3-2.6-2.3-5.9-3.4-.1-.3.1-.5.2-.7 5.2-7 10.4-14 15.6-21 1.3-1.7 2.6-3.4 4-5.1.3-.4.7-.9 1.2-1.1 0 3.5-.1 7.2 0 11z" fill="#361f55" fill-rule="evenodd"/><path d="m38.7 206.9c-1 1.9-2 3.8-3.1 5.7-3.7 6.5-6.6 13.4-9.1 20.5-.5 1.4-1.1 2.8-1.6 4.2-1.7-.6-3.3-1.5-4.8-2.3-1-.5-1-.8-.6-1.8 2.4-5.8 5-11.5 8-16.9.7-1.2 1.3-2.4 1.9-3.6.4-.9 1-1.6 1.8-2.2 2.1-1.6 4.4-2.6 6.9-3.5.1-.1.3-.1.6-.1z" fill="#361f55" fill-rule="evenodd"/><path d="m177.1 61.9c9.2 3.6 18 7.6 26.5 12.4-.4.7-1 1.2-1.5 1.8-1.2 1.4-2.3 2.8-3.5 4.3-.4.5-.6.6-1.1.2-5.7-3.4-11.7-6.3-17.7-9-.6-.3-.9-.6-1.1-1.2-.8-2.8-1.4-5.5-1.6-8.5zm2.9 3.6c.1 1.1.4 2 .6 2.9.1.7.5 1.1 1.2 1.4 2.1.9 4.2 2 6.2 3 2.9 1.4 5.8 2.9 8.6 4.5.9.5.9.5 1.6-.3.6-.7 1.1-1.4 1.7-2.2-6.5-3.4-13.1-6.5-19.9-9.3z" fill="none"/><path d="m112 33.5c0-.8.3-1.6.5-2.3.9-2.8 2-5.6 3.2-8.3 1.4-3.1 3.9-5.4 6.6-7.4 2.8-2.1 5.9-3.7 9.2-4.9.3-.1.5-.2.8-.3.1 0 .2 0 .3.1-1.3 1.1-2.6 2.2-3.9 3.3-3.2 3-5.9 6.4-7.3 10.6-.8 2.4-1.1 4.7-.7 7.2-2.8.8-5.7 1.5-8.7 2z" fill="#361f55" fill-rule="evenodd"/><path d="m23 131.3c-.4.3-.8.5-1.1 1-1.9 2.9-3.5 5.8-4.3 9.2-.1.4-.2.7-.4 1.1 0 .1-.1.2-.2.4-.2-.8-.3-2.8-.2-3.7.9-5 2.9-9.6 6.4-13.5.4-.5.8-1 1.3-1.5 1.3-1.2 2.9-1.5 4.7-1.6 3.8-.3 7.7-.5 11.5-.5 1.7 0 3.4.2 5.1.4 2.5.3 4.3 1.7 5.9 3.6-.2 0-.5.1-.7 0-4-.5-8.1-.8-12.1-.9-5-.2-9.8 1-14.6 2.4-.3.1-.6.2-.7.6-.3.9-.8 1.9-.6 3z" fill="#361f55" fill-rule="evenodd"/><path d="m23 131.3c-.2-1.1.3-2.1.6-3.2.1-.4.4-.5.7-.6 4.8-1.3 9.6-2.6 14.6-2.4 4 .2 8.1.4 12.1.9h.7c.6.1.9.5 1.2.9 2.2 2.5 4 5.3 5.9 8-.1.2-.3.2-.5.1-3.6-3.5-8-5.5-13-6.4-7.2-1.3-14.2-.2-21 2.2-.4.2-.8.3-1.3.5z" fill="none"/><path d="m54.9 116.3c.8.5 1.2 1.2 1.7 2 2.6 4.6 5 9.2 6.4 14.3.3 1.1.7 2.2.6 3.7-1.1-1.7-1.9-3.2-2.9-4.7-2.7-4.4-5.5-8.8-8.8-12.8-1.6-2-3.5-3.2-6.1-3.3-1.8-.1-3.6.1-5.3.3-.8.1-1.6.3-2.4.4-.5.1-.8.1-.9-.6 0-.8-.4-1.7-.2-2.5 2.9 0 5.8 0 8.7.1 2.7.1 5.3.8 7.6 2.2.4.2.7.5 1.1.5.1.3.3.4.5.4z" fill="none"/><path d="m36.8 244.3c1.9.7 3.9.6 5.9.6.1 1.6.2 3.1.4 4.5.5 2.8 0 5.4-.4 8.1-.1.7-.2 1.5-.4 2.2-.1.3-.2.6-.6.7-1.6.1-3.1.1-4.5-.8-.4-.3-.7-.6-.7-1.1 0-4.7 0-9.3 0-14 .2-.1.2-.1.3-.2z" fill="none"/><path d="m29.6 241.7c1.5 1 2.8 1.8 4.4 1.8.6 0 .7.3.7.8v3.8 7.5c0 1.2 0 1.2-1.2 1-1.3-.2-2.5-.4-3-1.9-.1-.2-.2-.4-.2-.7-.3-4-.5-8-.7-12.3z" fill="none"/><path d="m54.5 116c-.4 0-.8-.3-1.1-.5-2.3-1.4-4.9-2.1-7.6-2.2-2.9-.2-5.8-.1-8.7-.1 0-.9 0-1.9-.1-2.8 0-.7.3-.9.9-.9 2.2.1 4.5-.1 6.7.2 1.2.2 2.3.3 3.5.5 2 .4 3.7 1.3 4.8 3.1.5.9 1.5 1.5 1.6 2.7z" fill="#361f55" fill-rule="evenodd"/><path d="m14.3 214.5c-2.4-.6-4.8-1.2-7.3-1.8-.4-.1-.7-.3-.8-.8-.4-3.1-.9-6.2-1.3-9.5.5.2.6.6.7.9 1 2 2.1 3.9 3.1 5.9.5.9 1.1 1.6 1.9 2.2 1.3.9 2.5 1.9 3.8 2.9 0 .1-.1.2-.1.2z" fill="none"/><path d="m24.8 239.3c1.1.6 2 1.1 2.9 1.6.5.2.4.6.5 1.1.2 3.2.2 6.5.3 9.7-1.5-.1-1.6-.2-1.8-1.5-.6-3.1-1.2-6.3-1.8-9.4-.1-.4-.2-.8-.1-1.5z" fill="none"/><path d="m25 248.8c-1.4-.4-2.4-1.1-2.8-2.6-.6-2.6-1.4-5.3-2.1-7.9-.1-.5-.2-1-.4-1.6.9.7 1.7 1.4 2.7 1.8.3.1.4.4.4.7.7 3.1 1.5 6.2 2.2 9.3.1.1 0 .2 0 .3z" fill="none"/><path d="m58.3 135.1c.2.1.4 0 .5-.1.3.2.3.5.3.8-.4-.2-.6-.4-.8-.7z" fill="#361f55" fill-rule="evenodd"/><path d="m115.9 283.4c.1.1.1.2.2.2l-.1.1c-.2 0-.3 0-.5-.2.1 0 .3 0 .4-.1z" fill="#361f55" fill-rule="evenodd"/><path d="m116.1 283.7c.1.1.2.2.2.3 0 0-.1.1-.1.1-.1-.1-.2-.3-.1-.4z" fill="#361f55" fill-rule="evenodd"/><path d="m71.3 78v-.1c.1 0 .1 0 0 .1z" fill="#361f55" fill-rule="evenodd"/><path d="m59.1 135.7c0 .1.1.1.1.2 0 0-.1-.1-.1-.2z" fill="#361f55" fill-rule="evenodd"/><path d="m54.9 116.3c-.2 0-.4-.1-.4-.3.2-.1.3.1.4.3z" fill="#361f55" fill-rule="evenodd"/><path d="m98.2 268.9c.2 0 .2.1.2.3-.1-.1-.4 0-.2-.3z" fill="none"/><path d="m115.9 283.4c-.1 0-.3.1-.4.1-.1-.1-.1-.2-.2-.3.1-.1.1-.1.2-.2.1.2.3.3.4.4z" fill="none"/><path d="m151.6 313.1c0-.1-.1-.1-.1-.2.1 0 .1 0 .2.1v.1z" fill="#361f55" fill-rule="evenodd"/><path d="m151.8 313.6c0-.2 0-.4-.3-.4h.1v-.1c.2.1.6.2.2.5z" fill="none"/><path d="m138.9 286.2c.2-2.3.5-4.5.7-6.6.6-5.8 1.3-11.6 1.9-17.4.1-1.1-.1-1.2 1.3-1.2h9.3c1.2 0 1.2 0 1.2-1.3 0-7.3 0-14.6 0-22 0-13.1 0-26.3 0-39.4 0-1.7.2-1.6-1.6-1.6-3.1 0-6.1 0-9.2 0-1.3 0-1.3 0-1.4-1.2-.4-3.9-.7-7.7-1.1-11.6-.3-3.7-.7-7.4-1.1-11.1-.2-1.8-.2-1.6 1.5-1.6h60.2c1.7 0 1.6-.2 1.4 1.5-.5 4.7-1 9.5-1.6 14.2-.3 2.8-.6 5.5-.9 8.3-.1 1.3-.2 1.3-1.5 1.3-2.9 0-5.8 0-8.6 0-.3 0-.7 0-1 0-.5 0-.8.2-.8.7v1 60.6c0 2-.2 1.7 1.8 1.7h8.9c.5 0 .9-.1 1.4.1.3 1.2.3 2.4.4 3.6.6 6.6 1.2 13.2 1.8 19.9 0 .4 0 .8.1 1.1.1.6-.2.9-.8.8-.2 0-.5 0-.7 0-20.1 0-40.1 0-60.2 0-.2.2-.7.2-1.4.2zm5.8-22.2c-.8-.2-.6.5-.6.8-.6 4.2-1.1 8.5-1.7 12.7-.2 1.6-.4 3.3-.6 4.9 0 .3-.3.7.3.8.7.2 1.4.2 2.1.2 17.9 0 35.9.1 53.8.1h1c.4 0 .6-.2.5-.6 0-.2 0-.5-.1-.7-.5-4.8-1-9.7-1.6-14.5-.1-1.1-.3-2.1-.4-3.2-.1-.6-.4-.7-.9-.5-.5 0-1-.1-1.5-.1-3.2 0-6.4 0-9.5 0 0-.6-.1-1.1-.1-1.7 0-13.2 0-26.3 0-39.5 0-9.3 0-18.5 0-27.8 0-1.4 0-1.2 1.2-1.2h9.2c1.2 0 1.2 0 1.4-1.2.5-3.9 1-7.8 1.5-11.6.3-1.9.5-3.8.7-5.8 0-.3.2-.7-.4-.7-.3 0-.7-.1-1-.1-18.3-.1-36.6-.1-54.9-.2-.4 0-.8 0-1.1 0-.7.3-.4.9-.3 1.3.5 4.8 1 9.7 1.6 14.5.2 1.3.1 2.6.6 3.9.5 0 1 .1 1.5.1h10.3v1 67.9c0 .4 0 .8-.1 1.1-.6 0-1.1 0-1.7 0-3 0-6.1.1-9.2.1z" fill="none"/><path d="m207.2 390c-.4 0-.6-.4-.9-.6-6.1-5.8-12.1-11.5-18.1-17.3-.2-.2-.4-.4-.6-.6-.9-.8-1.7-1.6-2-2.8-.2-.9-.7-1.7-.9-2.5-.4-1.7-1.4-3-2.7-4.1-7.4-6.7-14.7-13.4-22-20.2-6.8-6.2-13.5-12.5-20.3-18.7-6.5-6-13-11.9-19.5-17.9-7.6-7-15.1-13.9-22.7-20.9-7.3-6.7-14.6-13.4-21.9-20.1-3-2.8-6-5.6-9.1-8.3-.4-.3-.8-.7-1.2-1.1 1-1.1 2.1-1.9 3.1-2.8.4-.4.7 0 1 .2 1.8 1.5 3.6 3 5.5 4.5 12.6 10.3 25.1 20.7 37.7 31 11.9 9.8 23.9 19.6 35.8 29.5 12.1 9.9 24.1 19.8 36.2 29.7l11.4 9.3c.6.5 1 1.1 1.2 1.8 3.3 10.3 6.7 20.6 10 30.9.1.3.2.5.1.8z" fill="#361f55" fill-rule="evenodd"/><path d="m207.3 389.9c.1 0 .2.1.1.2s-.2 0-.2-.1c0 0 .1-.1.1-.1z" fill="#361f55" fill-rule="evenodd"/><path d="m171.5 42.2c-9 5.8-19 9.2-29.3 12 0-9.9 0-19.6 0-29.3.2-.1.3 0 .5.1 5.1 5.2 11.4 8.5 18.2 10.7 4.4 1.5 8.9 2.4 13.5 3 .8.1.9.3.8 1.1-.4 2.9-1 5.9-2.2 8.6-2 4.5-2.3 9.3-1.8 14.1.3 3.6 1.1 7.1 2.2 10.5.3.8.1 1.3-.3 2-1.9 2.9-4.1 5.5-6.5 8-5.1 5.6-10.5 10.8-16.6 15.4-2 1.5-4.1 2.9-6.2 4.2-.5.3-1 .5-1.7.9 0-.5 0-.9 0-1.2 0-11.7 0-23.4 0-35.1 0-1.6-.2-1.2 1.3-1.7 6.9-2 13.7-4.2 20.2-7.3 1.3-.6 2.6-1.3 3.8-2.2.7-.5 1.2-1.1 1.6-1.9 1.5-3.5 2.6-7.1 2.7-10.9 0-.3.2-.6-.2-1zm-24.6 54.5c1.6-.8 2.7-2 3.2-3.8.6-2.4 1.2-4.7 1.6-7.2 1-5.6 1.8-11.3 2.3-17 0-.4.4-.8-.1-1.2-1.1.3-2.1.7-3.2 1-.5.1-.7.4-.7 1-.1 3.1-.3 6.1-.5 9.2-.4 5.8-1.1 11.5-2.5 17.2-.1.2-.5.5-.1.8 0-.1-.1-.1-.2 0v.2c.1-.1.2-.2.2-.2zm13.8-31.8c-1.3.5-2.4 1-3.4 1.3-.5.2-.5.5-.5.9-.2 3.4-.3 6.9-.6 10.3-.3 4.1-.8 8.2-1.6 12.2-.2.8-.5 1.7-.4 2.7 1.4-.9 2.6-1.7 2.9-3.4.1-.6.4-1.2.5-1.8 1.3-5.1 2.1-10.2 2.5-15.4.3-2.1.4-4.3.6-6.8zm6.7-3.6c-1.2.6-2.1 1-3.1 1.5-.6.3-.8.6-.8 1.3-.1 3.6-.3 7.2-.6 10.9-.4 3.7-.8 7.5-1.9 11.1-.1.2-.3.5 0 .7 1.6-.9 2.7-2.1 3-4 .1-.3.2-.6.3-1 1.2-4.6 1.9-9.3 2.5-14 .2-2.1.5-4.2.6-6.5z" fill="#080808" fill-rule="evenodd"/><path d="m169.6 46.1c-.2 1.7-.8 3.1-1.4 4.4-.4.9-.9 1.7-1.4 2.6-.4.8-1.1 1.1-1.8 1.6-2.8 1.7-5.9 3-9 4.2-4.3 1.6-8.6 3-13 4.3-.5.2-1 .3-1.6.1-6.5-1.9-12.9-3.9-19-6.8-.2-.1-.4-.2-.6-.3-4.1-2-4.8-2.9-6.4-7.2-.3-.9-.6-1.8-.9-2.7.6-.1.9.2 1.2.4 8 4.3 16.5 7.4 25.2 9.8.9.2 1.6.1 2.5-.1 8.9-2.4 17.4-5.6 25.5-9.9.2-.2.4-.3.7-.4z" fill="#080808" fill-rule="evenodd"/><path d="m138 28.7c-3.4 7.9-2.6 15.7-.4 23.7-.9 0-1.7-.4-2.5-.6-3-.9-6-1.7-8.9-2.8s-5.7-2.4-8.6-3.6c-.1 0-.2-.1-.3-.1-2-1.1-4.1-1.6-6.3-.7-.8.3-1 0-1.3-.8-.5-1.5-.3-3.1-.3-4.6 0-.5.3-.6.8-.6 9.7-.9 18.5-4.2 26.6-9.4.3-.3.6-.6 1.2-.5z" fill="#361f55" fill-rule="evenodd"/><path d="m130.5 67.5c1.1.3 2.1.7 3.1.9.6.2.8.4.8 1.1 0 3.3.3 6.5.5 9.7.5 5.5 1.1 11.1 2.5 16.5.1.3.2.5 0 .9-1.4-.9-2.6-1.9-3-3.6-1.1-4-1.9-8-2.5-12-.6-4.2-1.2-8.4-1.6-12.6.1-.3-.1-.5.2-.9z" fill="#080808" fill-rule="evenodd"/><path d="m123.8 65.1c1.3.3 2.3.9 3.3 1.2.5.2.5.6.5 1 .1 3.3.3 6.7.5 10 .4 4.7.9 9.5 2 14.1.1.2 0 .5.1.8-1.5-.9-2.6-1.9-3-3.6-1-3.8-1.8-7.6-2.3-11.5-.5-3.7-.9-7.5-1-11.3-.1 0-.1-.2-.1-.7z" fill="#080808" fill-rule="evenodd"/><path d="m123.4 86.5c-1.4-.6-2.3-1.6-2.7-3.2-1.1-3.7-1.8-7.5-2.4-11.3-.4-2.9-.7-5.8-1.1-8.7-.1-.6-.1-1.1-.1-1.8 1.3.3 2.3 1 3.4 1.5.5.2.4.7.4 1.1.2 2.5.2 5.1.4 7.6.4 4.7.8 9.4 2 14 .1.2.1.5.1.7.1 0 0 0 0 .1z" fill="#080808" fill-rule="evenodd"/><path d="m123.5 86.3c.2.1.2.2 0 .3-.1 0-.2-.1-.1-.2 0 0 .1 0 .1-.1z" fill="#080808" fill-rule="evenodd"/><path d="m180 65.5c6.9 2.8 13.4 5.8 19.9 9.3-.6.8-1.2 1.5-1.7 2.2-.7.8-.7.8-1.6.3-2.8-1.6-5.7-3.1-8.6-4.5-2.1-1-4.1-2-6.2-3-.7-.3-1-.7-1.2-1.4-.3-.9-.6-1.7-.6-2.9z" fill="#080808" fill-rule="evenodd"/><path d="m196.6 263.9c.5-.2.8-.1.9.5.1 1.1.3 2.1.4 3.2.5 4.8 1 9.7 1.6 14.5 0 .2 0 .5.1.7 0 .4-.1.6-.5.6-.3 0-.7 0-1 0-17.9 0-35.9-.1-53.8-.1-.7 0-1.4 0-2.1-.2.8-.9 1.6-1.9 2.4-2.8 2.3-2.7 4.7-5.4 7-8h15.2c1 0 2 0 2.9-.1 1.1 0 1.1 0 1.1-1 0-.2 0-.5 0-.7 0-22 0-44 0-66 0-6.7 0-13.4 0-20.1.4-.4 1-.3 1.5-.3h16.1c.9 0 1.6-.3 2.2-.9 2.8-2.9 5.6-5.8 8.3-8.6.1-.1.2-.2.2-.3.6 0 .4.4.4.7-.2 1.9-.5 3.8-.7 5.8-.5 3.9-1 7.8-1.5 11.6-.2 1.2-.2 1.2-1.4 1.2-3.1 0-6.1 0-9.2 0-1.2 0-1.2-.1-1.2 1.2v27.8 39.5c0 .6 0 1.1.1 1.7-.1.1-.2.2-.3.3-4.3 2.5-8.6 4.9-12.8 7.4-.3.2-.8.2-.9.8h15.1c.6 0 1-.2 1.4-.6 1.3-1.1 2.6-2.2 3.8-3.4 1.4-1.4 3.3-2.7 4.7-4.4z" fill="#080808" fill-rule="evenodd"/><path d="m170.7 184.5v20.1 66 .7c0 1 0 1-1.1 1-.1-.6-.6-.7-1-.9-2.1-1.2-4.2-2.4-6.2-3.6-2.2-1.3-4.5-2.6-6.7-3.9 0-.4.1-.8.1-1.1 0-22.6 0-45.3 0-67.9 0-.3 0-.7 0-1 1.9-1.2 3.8-2.4 5.7-3.7 3-1.9 6-3.8 8.9-5.7z" fill="#3e286b" fill-rule="evenodd"/><path d="m170.7 184.5c-.1 0-.2 0-.3 0-.3-.4-.8-.2-1.2-.2-5.3 0-10.6 0-15.9 0-1.1-.9-2.2-1.9-3.3-2.8-2.2-1.9-4.3-3.7-6.4-5.6-.5-.5-1.2-.9-1.4-1.7.4 0 .8-.1 1.1 0 18.3.1 36.6.1 54.9.2.3 0 .7 0 1 .1-.1.1-.1.2-.2.3-2.8 2.9-5.6 5.7-8.3 8.6-.6.7-1.3 1-2.2.9-5.4 0-10.7 0-16.1 0-.7-.1-1.3-.2-1.7.2z" fill="#361f55" fill-rule="evenodd"/><path d="m153.3 184.2h15.9c.4 0 .9-.2 1.2.2-3 1.9-6 3.8-8.9 5.7-1.9 1.2-3.8 2.4-5.7 3.7-3.4 0-6.8 0-10.3 0-.5 0-1 0-1.5-.1 1.9-2.2 4.1-4.2 6.1-6.2 1.1-1 2.3-1.9 3.2-3.3z" fill="#080808" fill-rule="evenodd"/><path d="m155.7 263.9c2.2 1.3 4.5 2.6 6.7 3.9 2.1 1.2 4.2 2.4 6.2 3.6.4.2.9.4 1 .9-1 0-2 .1-2.9.1-5.1 0-10.1 0-15.2 0-1.4-1.6-2.8-3.3-4.2-4.9-.9-1.1-1.9-2.1-2.6-3.4 3.1 0 6.2-.1 9.4-.1.5-.1 1-.1 1.6-.1z" fill="#361f55" fill-rule="evenodd"/><path d="m196.6 263.9c-1.4 1.7-3.3 3-4.8 4.5-1.2 1.2-2.6 2.2-3.8 3.4-.4.4-.8.6-1.4.6-5 0-10 0-15.1 0 0-.6.6-.6.9-.8 4.3-2.5 8.6-5 12.8-7.4.1-.1.2-.2.3-.3h9.5c.6-.1 1.1-.1 1.6 0z" fill="#361f55" fill-rule="evenodd"/><path d="m153.3 184.2c-.8 1.3-2.1 2.3-3.2 3.3-2.1 2-4.2 4-6.1 6.2-.5-1.2-.4-2.6-.6-3.9-.6-4.8-1.1-9.7-1.6-14.5 0-.4-.4-1 .3-1.3.2.8.9 1.2 1.4 1.7 2.1 1.9 4.3 3.8 6.4 5.6 1.1 1.1 2.3 2 3.4 2.9z" fill="#3e286b" fill-rule="evenodd"/><path d="m144.7 264c.7 1.3 1.7 2.3 2.6 3.4 1.4 1.7 2.8 3.3 4.2 4.9-2.3 2.7-4.7 5.3-7 8-.8.9-1.6 1.9-2.4 2.8-.6-.1-.3-.5-.3-.8.2-1.6.4-3.3.6-4.9.6-4.2 1.1-8.5 1.7-12.7 0-.3-.2-.9.6-.7z" fill="#3e286b" fill-rule="evenodd"/><path d="m146.9 96.7c-.4-.3-.1-.6 0-.9 1.4-5.6 2.1-11.4 2.5-17.2.2-3.1.4-6.1.5-9.2 0-.6.2-.8.7-1 1.1-.3 2.2-.6 3.2-1 .5.4.1.8.1 1.2-.5 5.7-1.3 11.3-2.3 17-.4 2.4-1.1 4.8-1.6 7.2-.4 1.9-1.5 3-3.1 3.9z" fill="none"/><path d="m160.7 64.9c-.2 2.5-.3 4.7-.5 6.9-.5 5.2-1.2 10.4-2.5 15.4-.2.6-.4 1.2-.5 1.8-.3 1.7-1.5 2.5-2.9 3.4-.1-1.1.3-1.9.4-2.7.8-4 1.3-8.1 1.6-12.2.3-3.4.4-6.9.6-10.3 0-.4 0-.7.5-.9 1-.4 2-.8 3.3-1.4z" fill="none"/><path d="m167.4 61.3c-.1 2.4-.4 4.4-.6 6.5-.6 4.7-1.3 9.4-2.5 14-.1.3-.2.6-.3 1-.3 1.9-1.4 3.1-3 4-.3-.2-.1-.5 0-.7 1.1-3.6 1.5-7.4 1.9-11.1.4-3.6.6-7.2.6-10.9 0-.7.2-1 .8-1.3.9-.5 1.9-1 3.1-1.5z" fill="none"/><path d="m146.9 96.7c0 .1-.1.1-.1.2 0-.1-.1-.1 0-.2 0-.1.1-.1.1 0z" fill="none"/></g></svg>